<?xml version="1.0" standalone="no"?>
<!DOCTYPE svg PUBLIC "-//W3C//DTD SVG 20010904//EN"
 "http://www.w3.org/TR/2001/REC-SVG-20010904/DTD/svg10.dtd">
<svg version="1.0" xmlns="http://www.w3.org/2000/svg"
 width="300.000000pt" height="300.000000pt" viewBox="0 0 300.000000 300.000000"
 preserveAspectRatio="xMidYMid meet">

<g transform="translate(0.000000,300.000000) scale(0.100000,-0.100000)"
fill="#915EFF" stroke="none">
<path d="M0 2730 l0 -270 80 0 80 0 0 195 0 195 1345 0 1345 0 0 -195 0 -195
75 0 75 0 0 270 0 270 -1500 0 -1500 0 0 -270z"/>
<path d="M293 2353 c-61 -43 -271 -223 -280 -242 -10 -19 -17 -1322 -8 -1399
11 -91 15 -92 248 -92 l200 0 36 27 c105 79 274 228 282 250 5 13 9 65 9 114
l0 89 40 0 c22 0 55 6 73 14 30 13 211 159 285 229 l32 31 0 173 c0 160 -2
175 -20 193 -11 11 -29 20 -41 20 -11 0 -19 4 -17 10 2 5 53 51 113 101 61 50
115 101 122 113 8 14 12 75 13 182 0 145 -2 164 -19 185 l-19 24 -504 3 -504
3 -41 -28z m1051 -8 c21 -22 29 -87 25 -225 -6 -172 19 -160 -330 -160 l-279
0 0 -105 0 -105 194 0 c255 0 240 11 244 -180 2 -78 1 -153 -2 -166 -13 -52
-22 -54 -237 -54 l-199 0 0 -222 c0 -123 -4 -228 -8 -234 -19 -28 -56 -34
-227 -34 -171 0 -208 6 -227 34 -4 6 -8 331 -8 723 l0 712 22 15 c20 14 86 16
520 16 430 0 499 -2 512 -15z"/>
<path d="M522 1608 c2 -403 4 -493 8 -318 l5 245 238 3 c146 1 237 6 237 12 0
6 -90 10 -240 10 l-240 0 0 295 0 295 319 0 c203 0 322 4 326 10 4 7 -107 10
-324 10 l-331 0 2 -562z"/>
<path d="M1783 2353 c-77 -53 -270 -224 -282 -249 -15 -35 -16 -1387 0 -1433
6 -17 19 -36 29 -41 12 -6 234 -10 582 -10 515 0 566 1 588 17 58 40 276 227
287 247 16 27 18 737 3 766 -16 30 -74 40 -240 40 -131 0 -161 -3 -191 -18
-20 -10 -93 -67 -163 -126 l-126 -108 0 436 c0 304 -3 443 -11 460 -18 39 -58
46 -254 46 l-182 0 -40 -27z m447 -13 c19 -19 20 -33 20 -550 l0 -530 140 0
140 0 0 179 c0 165 2 180 21 205 l20 26 188 0 c178 0 189 -1 207 -21 18 -20
19 -41 19 -385 0 -335 -1 -365 -18 -381 -17 -17 -54 -18 -588 -18 -553 0 -571
1 -585 19 -12 17 -14 133 -14 732 l0 713 22 15 c18 13 57 16 215 16 180 0 194
-1 213 -20z"/>
<path d="M2012 1613 l-2 -563 380 0 380 0 0 215 c0 137 -4 215 -10 215 -6 0
-10 -75 -10 -205 l0 -205 -365 0 -365 0 -3 553 -2 552 -3 -562z"/>
<path d="M0 270 l0 -270 1500 0 1500 0 0 270 0 270 -75 0 -75 0 0 -195 0 -195
-1345 0 -1345 0 0 195 0 195 -80 0 -80 0 0 -270z"/>
</g>
</svg>
